<svg id="Camada_1" data-name="Camada 1" xmlns="http://www.w3.org/2000/svg" viewBox="0 0 626 437.99997"><defs><style>.cls-1{fill:#fff;}.cls-2{fill:#b2defb;}.cls-3{fill:#86c5f8;}.cls-4{fill:#379aeb;}.cls-5{fill:#8cbdf7;}.cls-6{fill:#93ccf7;}.cls-7{fill:#8fc4f6;}.cls-8{fill:#41a3ee;}.cls-9{fill:#298ce9;}.cls-10{fill:#6ab0f5;}.cls-11{fill:#9bd3f8;}.cls-12{fill:#c3e1fb;}.cls-13{fill:#6bb7f5;}.cls-14{fill:#a1cef8;}.cls-15{fill:#88c8f6;}.cls-16{fill:#a7d5f9;}</style></defs><rect class="cls-1" width="626" height="437.99997"/><path class="cls-2" d="M669.92593,349.22043A1069.94123,1069.94123,0,0,0,778.963,454.10932a1069.927,1069.927,0,0,0,118.66667,85.9259q-9.77055.67053-19.85185,1.18521-10.98671.558-21.62963.88889a647.62006,647.62006,0,0,1-69.11111-29.70371,650.55558,650.55558,0,0,1-117.11112-75.33334Z" transform="translate(-669.92593 -184.29449)"/><path class="cls-3" d="M669.92593,517.96115a564.10769,564.10769,0,0,0,81.77778,18.44446,564.47856,564.47856,0,0,0,104.44445,5.70371,649.46384,649.46384,0,0,1-109.31935-51.64417,648.91015,648.91015,0,0,1-76.90288-53.39288Z" transform="translate(-669.92593 -184.29449)"/><path class="cls-4" d="M856.14816,542.10932c12.138,4.8865,25.18305,9.64184,39.1111,14.07406a557.62741,557.62741,0,0,0,67.33333,16.88892q-8.98251,4.47912-18.66666,8.88885-13.17659,5.98362-25.64494,10.89722a631.63389,631.63389,0,0,1-115.46617-20.89722,632.18239,632.18239,0,0,1-132.88889-54,564.1121,564.1121,0,0,0,88.06,19.34049A564.1731,564.1731,0,0,0,856.14816,542.10932Z" transform="translate(-669.92593 -184.29449)"/><path class="cls-5" d="M918.281,592.85837q-18.90678,7.11081-39.02173,13.9917-24.69927,8.4278-48.22221,15.4444H669.92593V517.96115a631.955,631.955,0,0,0,129.56924,53.06311A631.64537,631.64537,0,0,0,918.281,592.85837Z" transform="translate(-669.92593 -184.29449)"/><path class="cls-6" d="M897.62964,540.03522c8.28038,5.29956,17.41414,10.67953,27.40741,15.92593a369.30885,369.30885,0,0,0,37.55554,17.11115c-15.9859-2.9661-33.32506-6.90656-51.69875-12.16587a557.35059,557.35059,0,0,1-54.74568-18.79711q12.14366-.38187,24.70168-1.0495Q889.34109,540.60522,897.62964,540.03522Z" transform="translate(-669.92593 -184.29449)"/><path class="cls-7" d="M831.03705,622.29447h19.33333c16.93759-2.79413,34.67793-6.19526,53.11111-10.33332,21.25444-4.77142,41.27608-10.03912,60-15.55554q-22.60026-1.77365-45.20049-3.54724-17.79364,6.69186-36.62372,13.17059Q855.7263,614.93173,831.03705,622.29447Z" transform="translate(-669.92593 -184.29449)"/><path class="cls-8" d="M963.48148,596.40561q10.35217-3.77628,20.88891-7.77777,11.61855-4.4143,22.88889-8.88892c-6.6594-.59369-13.63428-1.392-20.88889-2.44445-8.3836-1.21625-16.31964-2.65278-23.7778-4.22217q-8.98251,4.47912-18.66666,8.88885-13.17659,5.98362-25.64494,10.89722l22.07484,1.73236Q951.91867,595.4982,963.48148,596.40561Z" transform="translate(-669.92593 -184.29449)"/><path class="cls-9" d="M1007.25928,579.73892c16.48953,1.096,30.27337,1.63593,40.29629,1.926,23.24762.67273,48.37165,1.32666,80.2963-1.33338,9.204-.7669,16.73016-1.62237,21.62961-2.22223a642.27742,642.27742,0,0,1-94.37037,16.1482,642.26608,642.26608,0,0,1-91.62963,2.14813q12.97974-4.73493,26.21969-9.81366Q998.576,583.18545,1007.25928,579.73892Z" transform="translate(-669.92593 -184.29449)"/><path class="cls-10" d="M850.37038,622.29447h153.1111q12.66393-8.16239,25.7778-17.4444,6.69626-4.75378,13.06482-9.50537c-12.91764.96875-26.63224,1.60449-41.06928,1.76135-13.21429.14355-25.82562-.1272-37.77334-.70044-15.90574,4.68591-32.71009,9.18127-50.37728,13.342C891.20618,614.9047,870.23589,619.01694,850.37038,622.29447Z" transform="translate(-669.92593 -184.29449)"/><path class="cls-11" d="M897.62964,540.03522A756.36217,756.36217,0,0,0,976.59259,527.85a757.85926,757.85926,0,0,0,124-37.2222,731.98419,731.98419,0,0,1-73.28668,48.89474c-22.68033,13.23154-44.44016,24.28931-64.71332,33.54972a369.30885,369.30885,0,0,1-37.55554-17.11115C915.04378,550.71475,905.91,545.33478,897.62964,540.03522Z" transform="translate(-669.92593 -184.29449)"/><path class="cls-12" d="M1007.25928,579.73892c22.92541-9.63433,47.16885-20.907,72.31415-34.13144,16.60818-8.73461,32.25488-17.60812,46.94509-26.46115,8.82978-9.24875,17.92533-19.35974,27.11112-30.37036,9.67425-11.59613,18.38852-22.91949,26.22223-33.77777q-18.86179,8.84449-38.37039,17.62964-20.65512,9.29635-40.88889,18c-17.6589,13.38419-37.56763,27.21225-59.78879,40.82407a732.07021,732.07021,0,0,1-78.21121,41.62039c6.67194,1.40368,13.72485,2.7008,21.13715,3.82916C991.94528,578.15207,999.80594,579.07413,1007.25928,579.73892Z" transform="translate(-669.92593 -184.29449)"/><path class="cls-13" d="M1057.63385,581.942c10.26553-8.19617,20.829-17.09461,31.56961-26.74173,13.62131-12.2345,26.0372-24.33447,37.31506-36.05393-20.08154,12.10144-42.09338,24.32785-66.03686,36.22116-18.359,9.11939-36.1572,17.20017-53.22238,24.37143q13.77291.90629,28.12927,1.504Q1046.6823,581.70762,1057.63385,581.942Z" transform="translate(-669.92593 -184.29449)"/><path class="cls-13" d="M1003.48148,622.29447h292.44445V536.776a522.37776,522.37776,0,0,1-55.55554,21.18518,523.375,523.375,0,0,1-90.88891,20.14813c-16.06553,4.001-33.59031,7.70563-52.45874,10.76355-19.44321,3.15107-37.75589,5.20087-54.69864,6.47187q-8.28141,6.17367-17.17978,12.40417Q1014.1243,615.45259,1003.48148,622.29447Z" transform="translate(-669.92593 -184.29449)"/><path class="cls-14" d="M1295.92593,524.03522V371.88709a908.51313,908.51313,0,0,1-84.51849,82.66665,908.43521,908.43521,0,0,1-84.88892,64.59259c-9.13,9.48734-18.99078,19.20847-29.61785,29.03775-13.41349,12.40656-26.58164,23.62943-39.26682,33.75791,12.9798.46332,26.78787.53052,41.33429.03784,18.0404-.611,34.92572-2.00555,50.51334-3.87055a592.2782,592.2782,0,0,0,68.14813-19.70367A592.45777,592.45777,0,0,0,1295.92593,524.03522Z" transform="translate(-669.92593 -184.29449)"/><path class="cls-15" d="M1179.85187,454.9982q19.91253-10.53782,39.85183-21.03705,16.747-8.8183,33.50513-17.60534c-16.504,16.05288-34.85907,32.686-55.16888,49.44726-24.76566,20.43854-48.8523,38.10852-71.52143,53.34326,12.541-13.13922,25.3686-27.751,38.10685-43.94262Q1172.66338,464.9866,1179.85187,454.9982Z" transform="translate(-669.92593 -184.29449)"/><path class="cls-16" d="M1179.85187,454.9982q20.4423-10.81815,40.91421-21.5964,16.218-8.53863,32.44275-17.046,13.12464-12.76662,26.55231-26.9249,8.35959-8.83722,16.16479-17.54382v-106.963a1068.41415,1068.41415,0,0,1-54.88891,101.037A1068.38942,1068.38942,0,0,1,1179.85187,454.9982Z" transform="translate(-669.92593 -184.29449)"/></svg>